<svg width="38" height="38" viewBox="0 0 38 38" fill="none" xmlns="http://www.w3.org/2000/svg">
<rect x="0.5" y="0.5" width="37" height="37" rx="9.5" fill="#FFF2EA" stroke="#FAB758"/>
<path fill-rule="evenodd" clip-rule="evenodd" d="M12 8.25C11.2707 8.25 10.5712 8.53973 10.0555 9.05546C9.53973 9.57118 9.25 10.2707 9.25 11C9.25 11.7293 9.53973 12.4288 10.0555 12.9445C10.5712 13.4603 11.2707 13.75 12 13.75C12.7293 13.75 13.4288 13.4603 13.9445 12.9445C14.4603 12.4288 14.75 11.7293 14.75 11C14.75 10.2707 14.4603 9.57118 13.9445 9.05546C13.4288 8.53973 12.7293 8.25 12 8.25ZM10.75 11C10.75 10.6685 10.8817 10.3505 11.1161 10.1161C11.3505 9.8817 11.6685 9.75 12 9.75C12.3315 9.75 12.6495 9.8817 12.8839 10.1161C13.1183 10.3505 13.25 10.6685 13.25 11C13.25 11.3315 13.1183 11.6495 12.8839 11.8839C12.6495 12.1183 12.3315 12.25 12 12.25C11.6685 12.25 11.3505 12.1183 11.1161 11.8839C10.8817 11.6495 10.75 11.3315 10.75 11ZM9.25 15C9.25 14.8011 9.32902 14.6103 9.46967 14.4697C9.61032 14.329 9.80109 14.25 10 14.25H14C14.1989 14.25 14.3897 14.329 14.5303 14.4697C14.671 14.6103 14.75 14.8011 14.75 15V28C14.75 28.1989 14.671 28.3897 14.5303 28.5303C14.3897 28.671 14.1989 28.75 14 28.75H10C9.80109 28.75 9.61032 28.671 9.46967 28.5303C9.32902 28.3897 9.25 28.1989 9.25 28V15ZM10.75 15.75V27.25H13.25V15.75H10.75ZM16.25 15C16.25 14.8011 16.329 14.6103 16.4697 14.4697C16.6103 14.329 16.8011 14.25 17 14.25H21C21.1989 14.25 21.3897 14.329 21.5303 14.4697C21.671 14.6103 21.75 14.8011 21.75 15V15.434L22.185 15.247C22.9351 14.9266 23.7307 14.7258 24.543 14.652C27.318 14.4 29.75 16.58 29.75 19.38V28C29.75 28.1989 29.671 28.3897 29.5303 28.5303C29.3897 28.671 29.1989 28.75 29 28.75H25C24.8011 28.75 24.6103 28.671 24.4697 28.5303C24.329 28.3897 24.25 28.1989 24.25 28V21C24.25 20.6685 24.1183 20.3505 23.8839 20.1161C23.6495 19.8817 23.3315 19.75 23 19.75C22.6685 19.75 22.3505 19.8817 22.1161 20.1161C21.8817 20.3505 21.75 20.6685 21.75 21V28C21.75 28.1989 21.671 28.3897 21.5303 28.5303C21.3897 28.671 21.1989 28.75 21 28.75H17C16.8011 28.75 16.6103 28.671 16.4697 28.5303C16.329 28.3897 16.25 28.1989 16.25 28V15ZM17.75 15.75V27.25H20.25V21C20.25 20.2707 20.5397 19.5712 21.0555 19.0555C21.5712 18.5397 22.2707 18.25 23 18.25C23.7293 18.25 24.4288 18.5397 24.9445 19.0555C25.4603 19.5712 25.75 20.2707 25.75 21V27.25H28.25V19.38C28.25 17.476 26.589 15.972 24.68 16.146C24.0241 16.2055 23.3817 16.3675 22.776 16.626L21.296 17.261C21.1818 17.31 21.0573 17.3299 20.9336 17.3189C20.8098 17.3079 20.6907 17.2663 20.587 17.1979C20.4833 17.1295 20.3982 17.0364 20.3394 16.927C20.2806 16.8176 20.2499 16.6952 20.25 16.571V15.75H17.75Z" fill="#FAB758"/>
</svg>
