<svg width="70" height="70" viewBox="0 0 70 70" fill="none" xmlns="http://www.w3.org/2000/svg">
<path fill-rule="evenodd" clip-rule="evenodd" d="M51.1962 46.976C51.835 46.6565 52.5688 46.5824 53.2586 46.7679C53.9483 46.9533 54.546 47.3854 54.9383 47.9822L55.1075 48.2797L60.9408 59.9464C61.149 60.3625 61.2546 60.8223 61.2488 61.2874C61.243 61.7526 61.1261 62.2097 60.9077 62.6204C60.6893 63.0312 60.3759 63.3838 59.9935 63.6487C59.6111 63.9137 59.1709 64.0833 58.7096 64.1435L58.3333 64.1668H11.6667C11.2014 64.167 10.7428 64.0558 10.3292 63.8426C9.91565 63.6294 9.55909 63.3203 9.28932 62.9412C9.01955 62.5621 8.84439 62.124 8.77848 61.6633C8.71256 61.2027 8.7578 60.7331 8.91042 60.2935L9.05625 59.9435L14.8896 48.2768C15.2165 47.601 15.7915 47.0773 16.4948 46.8147C17.1981 46.552 17.9756 46.5707 18.6655 46.8668C19.3554 47.1629 19.9045 47.7136 20.1986 48.4043C20.4928 49.0951 20.5092 49.8726 20.2446 50.5752L20.1075 50.8872L16.3858 58.3335H53.6142L49.8925 50.8872C49.5471 50.1956 49.4904 49.3952 49.7349 48.6618C49.9793 47.9284 50.505 47.3221 51.1962 46.976ZM35 5.8335C40.4148 5.8335 45.6079 7.98453 49.4368 11.8134C53.2656 15.6423 55.4167 20.8353 55.4167 26.2502C55.4167 33.1977 51.6571 38.8414 47.7663 42.846C45.6172 45.0292 43.2546 46.9913 40.7137 48.7027L39.6258 49.4202L38.6575 50.0297L38.2229 50.2922L37.4733 50.7239C35.9333 51.5989 34.0667 51.5989 32.5267 50.7239L31.7771 50.2893L30.8729 49.7381L30.3742 49.4202L29.2863 48.7027C26.7454 46.9913 24.3828 45.0292 22.2338 42.846C18.3429 38.8414 14.5833 33.1977 14.5833 26.2502C14.5833 20.8353 16.7344 15.6423 20.5632 11.8134C24.3921 7.98453 29.5852 5.8335 35 5.8335ZM35 20.4168C33.4529 20.4168 31.9692 21.0314 30.8752 22.1254C29.7813 23.2193 29.1667 24.7031 29.1667 26.2502C29.1667 27.7973 29.7813 29.281 30.8752 30.375C31.9692 31.4689 33.4529 32.0835 35 32.0835C36.5471 32.0835 38.0308 31.4689 39.1248 30.375C40.2188 29.281 40.8333 27.7973 40.8333 26.2502C40.8333 24.7031 40.2188 23.2193 39.1248 22.1254C38.0308 21.0314 36.5471 20.4168 35 20.4168Z" fill="#3A9DC2"/>
</svg>
