<svg width="70" height="70" viewBox="0 0 70 70" fill="none" xmlns="http://www.w3.org/2000/svg">
<path d="M48.2883 37.6426L46.9613 38.9639C46.9613 38.9639 43.8025 42.1022 35.1838 33.533C26.565 24.9639 29.7237 21.8255 29.7237 21.8255L30.5579 20.9914C32.62 18.9439 32.8154 15.6539 31.0158 13.2505L27.3408 8.34177C25.1125 5.36677 20.8104 4.97302 18.2583 7.51052L13.6792 12.0605C12.4162 13.3205 11.5704 14.948 11.6725 16.7564C11.935 21.3851 14.0292 31.3397 25.7075 42.9539C38.0946 55.268 49.7175 55.758 54.4688 55.3147C55.9738 55.1747 57.2804 54.4105 58.3333 53.3605L62.475 49.2422C65.275 46.4626 64.4875 41.6939 60.9058 39.7484L55.335 36.718C52.9842 35.4434 50.1258 35.8168 48.2883 37.6426Z" fill="#3A9DC2"/>
</svg>
