<svg width="150" height="150" viewBox="0 0 150 150" fill="none" xmlns="http://www.w3.org/2000/svg">
<path fill-rule="evenodd" clip-rule="evenodd" d="M58.9166 28.4873C35.3834 43.6005 22.3098 61.1911 19.6955 81.2589C15.6257 112.5 43.5638 127.791 57.7197 114.052C71.8756 100.313 63.39 82.8736 53.1397 78.1067C42.8894 73.3396 36.6209 74.9999 37.7144 68.6296C38.8078 62.2595 53.3909 44.5977 66.2028 36.3724C67.0528 35.6496 67.3763 34.2471 66.5578 33.183C66.0194 32.4833 64.9634 31.111 63.39 29.0659C62.0141 27.2775 60.6959 27.3445 58.9166 28.4873Z" fill="#E5F3FF"/>
<path fill-rule="evenodd" clip-rule="evenodd" d="M120.872 28.4873C97.3388 43.6005 84.265 61.1911 81.6506 81.2589C77.5809 112.5 105.519 127.791 119.675 114.052C133.831 100.313 125.345 82.8736 115.095 78.1067C104.845 73.3396 98.5759 74.9999 99.6697 68.6296C100.763 62.2595 115.346 44.5977 128.158 36.3724C129.008 35.6496 129.332 34.2471 128.513 33.183C127.975 32.4833 126.919 31.111 125.345 29.0659C123.969 27.2775 122.651 27.3445 120.872 28.4873Z" fill="#E5F3FF"/>
</svg>
