<svg width="40" height="40" viewBox="0 0 40 40" fill="none" xmlns="http://www.w3.org/2000/svg">
<path d="M20 0C8.955 0 0 8.955 0 20C0 31.045 8.955 40 20 40C31.045 40 40 31.045 40 20C40 8.955 31.045 0 20 0ZM33.5267 20.4367C33.3646 20.4369 33.204 20.4051 33.0542 20.3433C32.9044 20.2814 32.7682 20.1906 32.6535 20.076C32.5388 19.9615 32.4478 19.8254 32.3857 19.6757C32.3236 19.526 32.2917 19.3654 32.2917 19.2033C32.2917 19.19 32.3 19.1767 32.3 19.1617L29.8667 16.7283C29.4617 16.3227 29.234 15.7732 29.2333 15.2V9.55167C29.2325 9.42656 29.1823 9.30684 29.0936 9.21853C29.005 9.13022 28.8851 9.08044 28.76 9.08H27.235C27.1098 9.08 26.9896 9.12964 26.9009 9.21805C26.8122 9.30645 26.7621 9.42642 26.7617 9.55167V13.5733L20.2833 7.305C20.194 7.21773 20.0738 7.16928 19.949 7.17022C19.8241 7.17115 19.7047 7.2214 19.6167 7.31L7.39667 19.5333C7.30833 19.6218 7.2587 19.7417 7.2587 19.8667C7.2587 19.9917 7.30833 20.1116 7.39667 20.2L8.55667 21.3617C8.64574 21.4488 8.76539 21.4976 8.89 21.4976C9.01461 21.4976 9.13426 21.4488 9.22333 21.3617L18.615 12.1083C19.0225 11.7081 19.5716 11.4849 20.1427 11.4874C20.7139 11.4899 21.261 11.7179 21.665 12.1217L30.8733 21.33C31.2784 21.7362 31.5059 22.2864 31.5059 22.86C31.5059 23.4336 31.2784 23.9838 30.8733 24.39L29.7417 25.5233C29.3379 25.923 28.7938 26.1489 28.2257 26.1526C27.6576 26.1564 27.1106 25.9377 26.7017 25.5433L20.2417 19.2667C20.1523 19.1792 20.032 19.1308 19.907 19.132C19.7819 19.1333 19.6626 19.1841 19.575 19.2733L13.37 25.5067C13.2825 25.5955 13.2334 25.7153 13.2334 25.84C13.2334 25.9647 13.2825 26.0845 13.37 26.1733L14.515 27.3233C14.6034 27.4117 14.7233 27.4613 14.8483 27.4613C14.9733 27.4613 15.0932 27.4117 15.1817 27.3233L18.5367 24.0133C18.942 23.6143 19.4879 23.3907 20.0567 23.3907C20.6254 23.3907 21.1714 23.6143 21.5767 24.0133L24.9 27.28L24.9117 27.2917C25.3172 27.6979 25.545 28.2485 25.545 28.8225C25.545 29.3965 25.3172 29.9471 24.9117 30.3533L21.6033 33.66V33.6817C21.603 33.9255 21.5304 34.1638 21.3947 34.3664C21.2589 34.569 21.0662 34.7268 20.8408 34.8199C20.6154 34.913 20.3675 34.9372 20.1284 34.8894C19.8892 34.8417 19.6696 34.7241 19.4973 34.5515C19.325 34.379 19.2077 34.1592 19.1602 33.92C19.1128 33.6808 19.1373 33.4329 19.2307 33.2076C19.3241 32.9824 19.4822 32.7899 19.685 32.6544C19.8878 32.519 20.1261 32.4467 20.37 32.4467C20.385 32.4467 20.3967 32.455 20.4117 32.455L23.7033 29.155C23.7479 29.1113 23.7832 29.0592 23.8072 29.0017C23.8313 28.9441 23.8436 28.8824 23.8433 28.82C23.8431 28.7578 23.8305 28.6963 23.8062 28.639C23.7818 28.5818 23.7463 28.53 23.7017 28.4867L20.3767 25.22C20.2878 25.1325 20.1681 25.0834 20.0433 25.0834C19.9186 25.0834 19.7989 25.1325 19.71 25.22L16.3667 28.52C15.96 28.9211 15.4115 29.1455 14.8403 29.1442C14.2691 29.143 13.7215 28.9162 13.3167 28.5133L12.1667 27.365C11.7626 26.959 11.5358 26.4095 11.5358 25.8367C11.5358 25.2639 11.7626 24.7144 12.1667 24.3083L18.3667 18.075C18.7692 17.6726 19.3137 17.4444 19.8829 17.4394C20.4521 17.4344 21.0004 17.6531 21.41 18.0483L27.875 24.3117C27.9639 24.3992 28.0836 24.4483 28.2083 24.4483C28.3331 24.4483 28.4528 24.3992 28.5417 24.3117L29.6733 23.18C29.7609 23.0911 29.8099 22.9714 29.8099 22.8467C29.8099 22.7219 29.7609 22.6022 29.6733 22.5133L20.4667 13.31C20.378 13.2221 20.2582 13.1727 20.1333 13.1727C20.0085 13.1727 19.8887 13.2221 19.8 13.31L10.405 22.5683C9.99758 22.9681 9.44887 23.1909 8.87809 23.1884C8.30731 23.1859 7.76058 22.9583 7.35667 22.555L6.19333 21.3983L6.19 21.3933C5.98935 21.1925 5.83026 20.9541 5.72182 20.6917C5.61338 20.4294 5.55772 20.1482 5.55803 19.8643C5.55834 19.5804 5.61461 19.2994 5.72362 19.0372C5.83263 18.7751 5.99225 18.5371 6.19333 18.3367L18.4167 6.11333C18.8195 5.71445 19.3622 5.48862 19.9291 5.48395C20.496 5.47928 21.0423 5.69614 21.4517 6.08833L25.0617 9.58333V9.55167C25.0625 8.9779 25.291 8.42791 25.6969 8.02234C26.1027 7.61678 26.6529 7.38877 27.2267 7.38833H28.7533C29.3268 7.38921 29.8766 7.61742 30.2821 8.02293C30.6876 8.42845 30.9158 8.97819 30.9167 9.55167V15.1917C30.9164 15.2536 30.9286 15.315 30.9523 15.3722C30.9761 15.4295 31.011 15.4814 31.055 15.525L33.5 17.97H33.5233C33.8504 17.9698 34.1642 18.0995 34.3957 18.3306C34.6271 18.5618 34.7573 18.8754 34.7575 19.2025C34.7577 19.5296 34.628 19.8434 34.3969 20.0748C34.1657 20.3063 33.8538 20.4364 33.5267 20.4367Z" fill="#FAB758"/>
</svg>
