<svg width="34" height="34" viewBox="0 0 34 34" fill="none" xmlns="http://www.w3.org/2000/svg">
<path d="M32 5.66663C32.442 5.66663 32.866 5.84222 33.1785 6.15478C33.4911 6.46734 33.6667 6.89126 33.6667 7.33329C33.6667 7.77532 33.4911 8.19924 33.1785 8.5118C32.866 8.82436 32.442 8.99996 32 8.99996V25.6666C32.442 25.6666 32.866 25.8422 33.1785 26.1548C33.4911 26.4673 33.6667 26.8913 33.6667 27.3333C33.6667 27.7753 33.4911 28.1992 33.1785 28.5118C32.866 28.8244 32.442 29 32 29H2C1.55798 29 1.13405 28.8244 0.821491 28.5118C0.508931 28.1992 0.333336 27.7753 0.333336 27.3333C0.333336 26.8913 0.508931 26.4673 0.821491 26.1548C1.13405 25.8422 1.55798 25.6666 2 25.6666V8.99996C1.55798 8.99996 1.13405 8.82436 0.821491 8.5118C0.508931 8.19924 0.333336 7.77532 0.333336 7.33329C0.333336 6.89126 0.508931 6.46734 0.821491 6.15478C1.13405 5.84222 1.55798 5.66663 2 5.66663H32ZM8.66667 12.3333C8.22464 12.3333 7.80072 12.5089 7.48816 12.8214C7.1756 13.134 7 13.5579 7 14V25.6666H10.3333V14C10.3333 13.5579 10.1577 13.134 9.84518 12.8214C9.53262 12.5089 9.1087 12.3333 8.66667 12.3333ZM17 12.3333C16.558 12.3333 16.1341 12.5089 15.8215 12.8214C15.5089 13.134 15.3333 13.5579 15.3333 14V25.6666H18.6667V14C18.6667 13.5579 18.4911 13.134 18.1785 12.8214C17.866 12.5089 17.442 12.3333 17 12.3333ZM25.3333 12.3333C24.8913 12.3333 24.4674 12.5089 24.1548 12.8214C23.8423 13.134 23.6667 13.5579 23.6667 14V25.6666H27V14C27 13.5579 26.8244 13.134 26.5118 12.8214C26.1993 12.5089 25.7754 12.3333 25.3333 12.3333ZM27 0.666626C27.442 0.666626 27.866 0.842221 28.1785 1.15478C28.4911 1.46734 28.6667 1.89127 28.6667 2.33329C28.6667 2.77532 28.4911 3.19924 28.1785 3.5118C27.866 3.82436 27.442 3.99996 27 3.99996H7C6.55797 3.99996 6.13405 3.82436 5.82149 3.5118C5.50893 3.19924 5.33334 2.77532 5.33334 2.33329C5.33334 1.89127 5.50893 1.46734 5.82149 1.15478C6.13405 0.842221 6.55797 0.666626 7 0.666626H27Z" fill="#FAB758"/>
</svg>
