<svg width="40" height="40" viewBox="0 0 40 40" fill="none" xmlns="http://www.w3.org/2000/svg">
<path fill-rule="evenodd" clip-rule="evenodd" d="M27.0114 1.83994C23.7235 0.0107148 19.8467 -0.447548 16.2229 0.564672C12.5991 1.57689 9.52091 3.97786 7.65686 7.24617C5.7928 10.5145 5.29337 14.3862 6.26704 18.0206C7.2407 21.6549 9.60883 24.7584 12.8571 26.6571V30.0885C12.8571 30.8463 13.1582 31.573 13.694 32.1088C14.2298 32.6446 14.9565 32.9457 15.7143 32.9457H24.2857C25.0435 32.9457 25.7702 32.6446 26.306 32.1088C26.8418 31.573 27.1429 30.8463 27.1429 30.0885V26.6599C29.3046 25.4186 31.1022 23.6311 32.3558 21.4764C33.6094 19.3218 34.2749 16.8756 34.2857 14.3828C34.3028 11.8332 33.6373 9.32547 32.3582 7.11989C31.079 4.91431 29.2329 3.09126 27.0114 1.83994ZM20 4.93137C20.9857 4.93137 21.7857 5.73137 21.7857 6.71708V7.81423C22.5762 7.96408 23.3136 8.31866 23.9242 8.84257C24.5349 9.36648 24.9974 10.0414 25.2657 10.7999C25.353 11.023 25.3945 11.2614 25.3878 11.5008C25.3811 11.7403 25.3263 11.9759 25.2266 12.1938C25.1269 12.4116 24.9844 12.6071 24.8076 12.7688C24.6308 12.9304 24.4233 13.0548 24.1974 13.1345C23.9716 13.2143 23.7319 13.2478 23.4928 13.2331C23.2538 13.2183 23.0201 13.1556 22.8057 13.0487C22.5914 12.9417 22.4007 12.7928 22.2451 12.6107C22.0895 12.4285 21.9721 12.2169 21.9 11.9885C21.8286 11.7901 21.6979 11.6185 21.5256 11.4969C21.3534 11.3753 21.148 11.3095 20.9371 11.3085H18.7657C18.5883 11.3083 18.417 11.3736 18.2847 11.4919C18.1525 11.6101 18.0686 11.7731 18.0491 11.9495C18.0296 12.1258 18.076 12.3032 18.1792 12.4475C18.2825 12.5918 18.4354 12.6929 18.6086 12.7314L21.9171 13.4542C22.9504 13.6821 23.8734 14.2596 24.5302 15.0893C25.1869 15.9189 25.5371 16.9498 25.5217 18.0078C25.5062 19.0658 25.126 20.0861 24.4454 20.8962C23.7647 21.7063 22.8252 22.2567 21.7857 22.4542V23.5571C21.7857 24.0307 21.5976 24.4849 21.2627 24.8198C20.9278 25.1547 20.4736 25.3428 20 25.3428C19.5264 25.3428 19.0722 25.1547 18.7373 24.8198C18.4024 24.4849 18.2143 24.0307 18.2143 23.5571V22.4571C17.4241 22.3075 16.6869 21.9533 16.0763 21.43C15.4657 20.9066 15.003 20.2322 14.7343 19.4742C14.5895 19.0312 14.6237 18.5492 14.8295 18.131C15.0353 17.7128 15.3964 17.3917 15.8358 17.2362C16.2751 17.0806 16.7579 17.103 17.1809 17.2986C17.604 17.4942 17.9338 17.8474 18.1 18.2828C18.2429 18.6828 18.6229 18.9628 19.0657 18.9628H20.9371C21.1877 18.9602 21.4285 18.8658 21.614 18.6974C21.7996 18.529 21.9168 18.2984 21.9436 18.0493C21.9704 17.8002 21.9048 17.55 21.7593 17.346C21.6138 17.142 21.3985 16.9986 21.1543 16.9428L17.8457 16.2199C16.8581 16.0037 15.9785 15.4456 15.3621 14.6442C14.7457 13.8428 14.432 12.8494 14.4764 11.8394C14.5208 10.8293 14.9204 9.86732 15.6048 9.12308C16.2892 8.37885 17.2143 7.90014 18.2171 7.77137V6.71423C18.2171 5.72851 19.0143 4.93137 20 4.93137ZM14.2857 35.6857C13.7174 35.6857 13.1723 35.9114 12.7705 36.3133C12.3686 36.7151 12.1429 37.2602 12.1429 37.8285C12.1429 38.3968 12.3686 38.9419 12.7705 39.3437C13.1723 39.7456 13.7174 39.9714 14.2857 39.9714H25.7143C26.2826 39.9714 26.8277 39.7456 27.2295 39.3437C27.6314 38.9419 27.8571 38.3968 27.8571 37.8285C27.8571 37.2602 27.6314 36.7151 27.2295 36.3133C26.8277 35.9114 26.2826 35.6857 25.7143 35.6857H14.2857Z" fill="#FAB758"/>
</svg>
