<svg width="40" height="40" viewBox="0 0 40 40" fill="none" xmlns="http://www.w3.org/2000/svg">
<path fill-rule="evenodd" clip-rule="evenodd" d="M19.9933 21.6667H20.0267C24.6292 21.6667 28.36 17.9358 28.36 13.3333C28.36 8.73083 24.6292 5 20.0267 5H19.96C15.3883 5.03583 11.6933 8.75333 11.6933 13.3333C11.6933 17.9133 15.3883 21.6308 19.96 21.6667H19.9933ZM26.6417 14.1667H24.975C24.9406 14.7428 24.8725 15.2983 24.7708 15.8333H26.2092C26.4217 15.3083 26.5692 14.7492 26.6425 14.1667M25.2317 17.5H24.3317C24.1608 17.9917 23.9608 18.4525 23.735 18.875C24.3009 18.4958 24.8062 18.0321 25.2317 17.5ZM23.0708 15.8333C23.185 15.3108 23.2658 14.7525 23.305 14.1667H20.86V15.8333H23.0708ZM20.86 17.5H22.5458C22.4195 17.7992 22.2728 18.0893 22.1067 18.3683C21.69 19.0608 21.2592 19.4892 20.86 19.7317V17.5ZM19.1933 15.8333V14.1667H16.695C16.7342 14.7525 16.815 15.3108 16.9292 15.8333H19.1933ZM17.4542 17.5H19.1933V19.7633C18.78 19.5267 18.3283 19.0925 17.8933 18.3683C17.7272 18.0893 17.5805 17.7992 17.4542 17.5ZM15.2292 15.8333C15.1275 15.2983 15.0594 14.7428 15.025 14.1667H13.4117C13.4842 14.7492 13.6317 15.3083 13.845 15.8333H15.2292ZM14.8225 17.5H15.6692C15.8317 17.97 16.0225 18.4117 16.2358 18.8175C15.7032 18.4493 15.2271 18.0055 14.8225 17.5ZM24.975 12.5C24.942 11.9407 24.8738 11.384 24.7708 10.8333H26.2092C26.4217 11.3583 26.5692 11.9175 26.6425 12.5H24.975ZM25.2308 9.16667H24.3308C24.1681 8.69346 23.9686 8.23372 23.7342 7.79167C24.3004 8.17081 24.8051 8.63453 25.2308 9.16667ZM20.86 9.16667H22.5458C22.4195 8.8675 22.2728 8.57737 22.1067 8.29833C21.69 7.605 21.2592 7.1775 20.86 6.935V9.16667ZM23.0708 10.8333H20.86V12.5H23.305C23.2672 11.9395 23.1889 11.3825 23.0708 10.8333ZM19.1933 6.90333V9.16667H17.4542C17.5886 8.85167 17.735 8.56222 17.8933 8.29833C18.3275 7.57417 18.78 7.14 19.1933 6.90333ZM19.1933 10.8333H16.9292C16.8111 11.3825 16.7328 11.9395 16.695 12.5H19.1933V10.8333ZM16.235 7.84917C16.0137 8.2737 15.8243 8.71407 15.6683 9.16667H14.8225C15.2271 8.6612 15.7024 8.21737 16.235 7.84917ZM15.23 10.8333H13.845C13.6291 11.3678 13.4834 11.928 13.4117 12.5H15.0258C15.0603 11.9239 15.1283 11.3683 15.23 10.8333Z" fill="#FAB758"/>
<path d="M8.42417 27.1841C8.89667 27.6858 9.36583 28.1841 9.8075 28.8174V29.9999H16.0017V28.8174C15.8908 27.8974 15.6958 26.2399 15.6783 25.7791C15.655 25.1308 14.785 23.9491 14.785 23.9491L12.1142 20.5824C12.1142 20.5824 11.3583 19.7841 10.9258 18.8991C10.4925 18.0133 9.5725 19.1274 9.45083 19.9241C9.3275 20.7208 9.56083 21.1408 9.56083 21.1408L11.0858 24.1724C11.0858 24.1724 9.3175 21.7499 8.76833 20.7766C8.49 20.2833 8.4125 19.2383 8.325 18.0708C8.24083 16.9333 8.1475 15.6791 7.85167 14.7041C7.25167 12.7291 5.51667 13.2233 5.21583 14.1066C4.91583 14.9891 4.98333 20.8216 5.0925 21.7941C5.17833 22.5558 5.6375 23.3008 6.155 24.1408C6.29833 24.3741 6.44667 24.6141 6.5925 24.8633C7.1725 25.8566 7.80083 26.5241 8.42417 27.1841ZM30.1942 28.8174C30.6358 28.1841 31.105 27.6858 31.5775 27.1841C32.2008 26.5241 32.8292 25.8566 33.41 24.8633C33.555 24.6133 33.7033 24.3741 33.8467 24.1416C34.3642 23.3016 34.8233 22.5558 34.9092 21.7941C35.0183 20.8216 35.0867 14.9891 34.7858 14.1066C34.485 13.2233 32.75 12.7291 32.15 14.7049C31.855 15.6799 31.7617 16.9333 31.6767 18.0708C31.5892 19.2383 31.5117 20.2833 31.2333 20.7766C30.6842 21.7508 28.915 24.1724 28.915 24.1724L30.4408 21.1408C30.4408 21.1408 30.6742 20.7208 30.5517 19.9241C30.4292 19.1274 29.5092 18.0133 29.0767 18.8991C28.6433 19.7841 27.8875 20.5824 27.8875 20.5824L25.2167 23.9491C25.2167 23.9491 24.3467 25.1308 24.3233 25.7791C24.3067 26.2399 24.1108 27.8974 24 28.8174V29.9999H30.1942V28.8174ZM21.6667 34.1666C21.6667 34.3876 21.7545 34.5996 21.9107 34.7559C22.067 34.9121 22.279 34.9999 22.5 34.9999H29.1667C29.3877 34.9999 29.5996 34.9121 29.7559 34.7559C29.9122 34.5996 30 34.3876 30 34.1666V32.4999C30 32.2789 29.9122 32.067 29.7559 31.9107C29.5996 31.7544 29.3877 31.6666 29.1667 31.6666H22.5C22.279 31.6666 22.067 31.7544 21.9107 31.9107C21.7545 32.067 21.6667 32.2789 21.6667 32.4999V34.1666ZM18.335 34.1666C18.335 34.3876 18.2472 34.5996 18.0909 34.7559C17.9346 34.9121 17.7227 34.9999 17.5017 34.9999H10.835C10.614 34.9999 10.402 34.9121 10.2457 34.7559C10.0895 34.5996 10.0017 34.3876 10.0017 34.1666V32.4999C10.0017 32.2789 10.0895 32.067 10.2457 31.9107C10.402 31.7544 10.614 31.6666 10.835 31.6666H17.5017C17.7227 31.6666 17.9346 31.7544 18.0909 31.9107C18.2472 32.067 18.335 32.2789 18.335 32.4999V34.1666Z" fill="#FAB758"/>
</svg>
