<svg width="40" height="40" viewBox="0 0 40 40" fill="none" xmlns="http://www.w3.org/2000/svg">
<path d="M12.5 13.3334C13.8261 13.3334 15.0979 12.8066 16.0355 11.8689C16.9732 10.9312 17.5 9.65946 17.5 8.33337C17.5 7.00729 16.9732 5.73552 16.0355 4.79784C15.0979 3.86016 13.8261 3.33337 12.5 3.33337C11.1739 3.33337 9.90216 3.86016 8.96448 4.79784C8.02679 5.73552 7.50001 7.00729 7.50001 8.33337C7.50001 9.65946 8.02679 10.9312 8.96448 11.8689C9.90216 12.8066 11.1739 13.3334 12.5 13.3334ZM3.33334 17.9467C3.33334 16.3167 4.65168 15 6.28001 15H14.225C13.6404 16.0136 13.3329 17.1633 13.3333 18.3334C13.3333 19.2792 13.5345 20.2142 13.9236 21.0762C14.3126 21.9383 14.8807 22.7077 15.59 23.3334H13.78C12.8407 23.3334 11.9237 23.62 11.1515 24.1548C10.3793 24.6897 9.78864 25.4474 9.45834 26.3267C6.96168 25.7167 5.41334 24.355 4.50168 22.8384C3.33334 20.8934 3.33334 18.8934 3.33334 18.545V17.9467ZM26.6667 18.3334C26.6671 17.1633 26.3596 16.0136 25.775 15H33.72C35.35 15 36.6667 16.3184 36.6667 17.9467V18.5467C36.6667 18.8917 36.6667 20.8934 35.5 22.8384C34.5867 24.355 33.0383 25.7167 30.5417 26.3267C30.2114 25.4474 29.6207 24.6897 28.8485 24.1548C28.0763 23.62 27.1593 23.3334 26.22 23.3334H24.41C25.1193 22.7077 25.6874 21.9383 26.0765 21.0762C26.4655 20.2142 26.6667 19.2792 26.6667 18.3334ZM32.5 8.33337C32.5 9.65946 31.9732 10.9312 31.0355 11.8689C30.0979 12.8066 28.8261 13.3334 27.5 13.3334C26.1739 13.3334 24.9022 12.8066 23.9645 11.8689C23.0268 10.9312 22.5 9.65946 22.5 8.33337C22.5 7.00729 23.0268 5.73552 23.9645 4.79784C24.9022 3.86016 26.1739 3.33337 27.5 3.33337C28.8261 3.33337 30.0979 3.86016 31.0355 4.79784C31.9732 5.73552 32.5 7.00729 32.5 8.33337ZM10.8333 27.9467C10.8333 26.3167 12.1517 25 13.78 25H26.22C27.8483 25 29.1667 26.3184 29.1667 27.9467V28.5467C29.1667 28.8917 29.1667 30.8934 28 32.8384C26.7617 34.895 24.355 36.6667 20 36.6667C15.645 36.6667 13.2367 34.895 12 32.8384C10.8333 30.8934 10.8333 28.8934 10.8333 28.545V27.9467ZM20 23.3334C20.6566 23.3334 21.3068 23.204 21.9134 22.9528C22.5201 22.7015 23.0713 22.3332 23.5355 21.8689C23.9998 21.4046 24.3681 20.8534 24.6194 20.2468C24.8707 19.6402 25 18.99 25 18.3334C25 17.6768 24.8707 17.0266 24.6194 16.42C24.3681 15.8133 23.9998 15.2621 23.5355 14.7978C23.0713 14.3335 22.5201 13.9652 21.9134 13.714C21.3068 13.4627 20.6566 13.3334 20 13.3334C18.6739 13.3334 17.4022 13.8602 16.4645 14.7978C15.5268 15.7355 15 17.0073 15 18.3334C15 19.6595 15.5268 20.9312 16.4645 21.8689C17.4022 22.8066 18.6739 23.3334 20 23.3334Z" fill="#FAB758"/>
</svg>
